# xmcd
#
# Track frame offsets: 
#        150
#        17156
#        28170
#        60868
#        74605
#        101891
#        129797
#        147194
#        163674
#        181018
#
# Disc length: 2725 seconds
#
# Revision: 0
# Processed by: cddbd v1.5.2PL0 Copyright (c) Steve Scherf et al.
# Submitted via: ExactAudioCopyFreeDBPlugin 1.0
#
DISCID=820aa30a
DTITLE=Paal Flaata - Wait By The Fire - Songs of Chip Taylor
DYEAR=2012
DGENRE=Rock
TTITLE0=Wait By The Fire
TTITLE1=He Sits At My Table
TTITLE2=Angel Of The Morning
TTITLE3=I Can Make It With You
TTITLE4=If I Stop Loving You
TTITLE5=Sleepy Eyes
TTITLE6=Graceland Souvenirs
TTITLE7=Weaker Moments
TTITLE8=You Didn't Get Here Last Night
TTITLE9=This Darkest Day
EXTD=
EXTT0=
EXTT1=
EXTT2=
EXTT3=
EXTT4=
EXTT5=
EXTT6=
EXTT7=
EXTT8=
EXTT9=
PLAYORDER=
